<?xml version="1.0" standalone="no"?>
<!DOCTYPE svg PUBLIC "-//W3C//DTD SVG 20010904//EN"
 "http://www.w3.org/TR/2001/REC-SVG-20010904/DTD/svg10.dtd">
<svg version="1.0" xmlns="http://www.w3.org/2000/svg"
 width="64.000000pt" height="64.000000pt" viewBox="0 0 64.000000 64.000000"
 preserveAspectRatio="xMidYMid meet">

<g transform="translate(0.000000,64.000000) scale(0.100000,-0.100000)"
fill="#000000" stroke="none">
<path d="M268 492 l-30 -69 -71 -9 c-102 -13 -108 -30 -37 -97 l56 -52 -13
-60 c-24 -113 -1 -130 92 -70 l55 35 55 -35 c93 -60 116 -43 92 70 l-13 60 56
52 c71 67 65 84 -37 97 l-71 9 -30 69 c-24 54 -35 68 -52 68 -17 0 -28 -14
-52 -68z"/>
</g>
</svg>
